<svg width="16" height="16" viewBox="0 0 16 16" fill="none" xmlns="http://www.w3.org/2000/svg">
<g id="error">
<path id="Union" fill-rule="evenodd" clip-rule="evenodd" d="M7.64913 9.01831C7.74253 9.1117 7.86871 9.16493 8.00078 9.16666C8.13285 9.16493 8.25902 9.1117 8.35242 9.01831C8.44582 8.92491 8.49905 8.79873 8.50078 8.66666V5.33333C8.50078 5.20072 8.4481 5.07354 8.35433 4.97978C8.26056 4.88601 8.13339 4.83333 8.00078 4.83333C7.86817 4.83333 7.74099 4.88601 7.64722 4.97978C7.55346 5.07354 7.50078 5.20072 7.50078 5.33333V8.66666C7.5025 8.79873 7.55574 8.92491 7.64913 9.01831ZM7.64914 11.0183C7.74254 11.1117 7.86871 11.1649 8.00078 11.1667C8.13286 11.1649 8.25903 11.1117 8.35243 11.0183C8.44582 10.9249 8.49906 10.7987 8.50078 10.6667V10.3333C8.50078 10.2007 8.44811 10.0735 8.35434 9.97977C8.26057 9.88601 8.13339 9.83333 8.00078 9.83333C7.86818 9.83333 7.741 9.88601 7.64723 9.97977C7.55346 10.0735 7.50078 10.2007 7.50078 10.3333V10.6667C7.50251 10.7987 7.55574 10.9249 7.64914 11.0183ZM8.33027 2.08932C8.124 1.97023 7.86987 1.97023 7.6636 2.08932L3.13411 4.70442C2.92785 4.8235 2.80078 5.04359 2.80078 5.28177V10.512C2.80078 10.7501 2.92785 10.9702 3.13411 11.0893L7.6636 13.7044C7.86987 13.8235 8.124 13.8235 8.33027 13.7044L12.8598 11.0893C13.066 10.9702 13.1931 10.7501 13.1931 10.512V5.28177C13.1931 5.04359 13.066 4.8235 12.8598 4.70442L8.33027 2.08932Z" fill="#DC2626"/>
</g>
</svg>
